<svg width="51" height="51" viewBox="0 0 51 51" fill="none" xmlns="http://www.w3.org/2000/svg">
<path fill-rule="evenodd" clip-rule="evenodd" d="M1.13847 30.1863C-0.29821 22.6231 1.74752 14.5004 7.37672 8.41555C15.9527 -0.854703 29.8904 -2.20022 40.0054 4.73627L43.1931 1.29061L46.0852 10.6177C46.1213 10.6668 46.1572 10.716 46.1929 10.7653L46.1396 10.793L46.9605 13.4405L34.5547 10.6282L37.8795 7.03429C29.0431 1.24128 17.0603 2.50175 9.64666 10.5156C7.61203 12.7149 6.11126 15.2178 5.13812 17.8648H10.4877H16.1151L15.8358 19.5875C15.6076 20.9929 15.7759 21.4636 16.749 22.1456C18.4599 23.3439 20.5371 23.1796 23.4038 21.6192C24.7796 20.8701 25.9742 20.3524 26.0581 20.468C26.1421 20.5841 28.3283 23.2456 30.9161 26.383C33.5039 29.5203 35.6216 32.431 35.6216 32.8515C35.6216 33.6604 34.2744 34.4135 33.5868 33.9884C33.3627 33.8502 32.8951 34.0794 32.5472 34.4985C32.1993 34.9175 31.5106 35.2603 31.0169 35.2603C30.5231 35.2603 29.8191 35.6215 29.4523 36.0635C29.086 36.5051 28.403 36.766 27.9348 36.6437C27.4672 36.5215 26.8159 36.8509 26.4879 37.3759C25.5383 38.8964 24.7499 38.5398 25.1398 36.7655C25.4386 35.4035 25.2421 34.9901 23.6182 33.5678C22.5918 32.6699 20.6712 30.961 19.3496 29.7715C16.5832 27.2809 15.1225 27.0614 13.319 28.8649C12.7533 29.4307 12.3573 29.7476 11.5983 29.9244V30.1863H1.87727V30.1863L1.13847 30.1863ZM44.2631 42.5396C50.7497 35.5279 52.4781 25.8104 49.6028 17.3611L49.459 17.4359V17.3955H35.7182C34.7524 17.1079 33.7195 16.7101 32.3359 16.1457C26.8941 13.9258 25.6483 13.8572 23.0318 15.6326C17.5236 19.3706 16.6395 20.534 18.8651 21.1162C19.6121 21.3117 21.0621 20.8727 22.9955 19.8663C24.6343 19.0139 26.1635 18.3872 26.3943 18.4742C26.625 18.5612 29.0021 21.2651 31.6769 24.4833L36.5404 30.3338L41.952 30.1992L47.364 30.0652L47.1981 30.6162L47.2517 30.6049C46.4035 34.1647 44.6553 37.5621 41.9932 40.4397C34.5795 48.4535 22.5967 49.714 13.7603 43.921L17.0852 40.327L4.67936 37.5147L5.53953 40.2887L5.52459 40.2965C5.53459 40.3102 5.54461 40.3238 5.55465 40.3375L8.44681 49.6646L11.6345 46.2189C21.7494 53.1553 35.6871 51.8098 44.2631 42.5396ZM15.1589 33.578C13.5564 33.1585 13.3456 31.7822 14.6692 30.3737C15.3164 29.6845 15.9795 29.1207 16.1427 29.1207C16.6554 29.1207 19.2494 32.0723 19.2494 32.6561C19.2494 32.9631 19.6019 33.2138 20.0327 33.2138C20.464 33.2138 20.9403 33.5366 21.0917 33.9306C21.2427 34.325 21.8111 34.764 22.3544 34.9062C23.5225 35.2117 23.5941 35.7438 22.6435 37.0438C21.9784 37.953 21.8561 37.9581 20.1411 37.1441C19.1491 36.6734 18.2046 35.9418 18.0419 35.5187C17.8797 35.095 17.3942 34.7486 16.9629 34.7486C16.5321 34.7486 16.1796 34.545 16.1796 34.2969C16.1796 34.0482 15.7201 33.7249 15.1589 33.578Z" fill="url(#paint0_linear_237_1415)"/>
<defs>
<linearGradient id="paint0_linear_237_1415" x1="29.163" y1="30.5784" x2="17.2826" y2="27.7671" gradientUnits="userSpaceOnUse">
<stop stop-color="#127C8B"/>
<stop offset="1" stop-color="#386649"/>
</linearGradient>
</defs>
</svg>
