<svg width="276" height="70" viewBox="0 0 276 70" fill="none" xmlns="http://www.w3.org/2000/svg">
<path fillRule="evenodd" clipRule="evenodd" d="M0.927979 47.3174V0.597382H32.672V8.21338H9.88798V19.3494H31.392V26.7094H9.88798V39.7014H32.672V47.3174H0.927979ZM41.8715 47.3174V0.597382H51.0235V39.4454H75.3435V47.3174H41.8715ZM85.423 47.3174V30.2934L68.335 0.597382H78.383L90.031 22.4214H90.159L101.743 0.597382H111.855L94.767 30.2934V47.3174H85.423ZM171.226 47.3174V0.597382H180.57V47.3174H171.226ZM186.933 47.3174L203.061 0.597382H215.157L231.285 47.3174H221.429L218.071 36.6294H200.131L196.789 47.3174H186.933ZM209.141 8.21338L215.617 28.8214H202.571L209.013 8.21338H209.141ZM237.163 47.3174V0.597382H246.507L266.027 32.4054H266.156V0.597382H275.115V47.3174H265.708L246.251 15.5094H246.123V47.3174H237.163ZM3.01134 69.3174V57.681H10.7159V59.7094H5.47157V62.4822H10.2045V64.5106H5.47157V69.3174H3.01134ZM17.4293 69.3174V60.5901H19.8497V69.3174H17.4293ZM18.6452 59.4651C18.2853 59.4651 17.9766 59.3458 17.719 59.1072C17.4652 58.8647 17.3384 58.575 17.3384 58.2378C17.3384 57.9045 17.4652 57.6185 17.719 57.3799C17.9766 57.1375 18.2853 57.0162 18.6452 57.0162C19.005 57.0162 19.3118 57.1375 19.5656 57.3799C19.8232 57.6185 19.952 57.9045 19.952 58.2378C19.952 58.575 19.8232 58.8647 19.5656 59.1072C19.3118 59.3458 19.005 59.4651 18.6452 59.4651ZM29.3131 64.2719V69.3174H26.8926V60.5901H29.1995V62.1299H29.3017C29.4949 61.6223 29.8188 61.2208 30.2733 60.9253C30.7279 60.6261 31.279 60.4765 31.9267 60.4765C32.5328 60.4765 33.0612 60.6091 33.512 60.8742C33.9627 61.1394 34.3131 61.5181 34.5631 62.0106C34.8131 62.4992 34.9381 63.0825 34.9381 63.7606V69.3174H32.5176V64.1924C32.5214 63.6583 32.3851 63.2416 32.1085 62.9424C31.832 62.6394 31.4513 62.4878 30.9665 62.4878C30.6407 62.4878 30.3529 62.5579 30.1029 62.6981C29.8567 62.8382 29.6635 63.0428 29.5233 63.3117C29.387 63.5769 29.3169 63.8969 29.3131 64.2719ZM45.1657 69.4594C44.5028 69.4594 43.9024 69.289 43.3645 68.9481C42.8304 68.6034 42.4062 68.0977 42.0918 67.431C41.7812 66.7606 41.6259 65.9386 41.6259 64.9651C41.6259 63.9651 41.7869 63.1337 42.1089 62.4708C42.4308 61.8041 42.8589 61.306 43.3929 60.9765C43.9308 60.6431 44.5198 60.4765 45.16 60.4765C45.6486 60.4765 46.0558 60.5598 46.3816 60.7265C46.7111 60.8894 46.9763 61.0939 47.177 61.3401C47.3816 61.5825 47.5369 61.8212 47.6429 62.056H47.7168V57.681H50.1316V69.3174H47.7452V67.9197H47.6429C47.5293 68.1621 47.3683 68.4026 47.16 68.6412C46.9554 68.8761 46.6884 69.0712 46.3589 69.2265C46.0331 69.3818 45.6354 69.4594 45.1657 69.4594ZM45.9327 67.5333C46.3229 67.5333 46.6524 67.4272 46.9214 67.2151C47.1941 66.9992 47.4024 66.6981 47.5464 66.3117C47.6941 65.9253 47.7679 65.4727 47.7679 64.9537C47.7679 64.4348 47.696 63.9841 47.552 63.6015C47.4081 63.2189 47.1998 62.9234 46.927 62.7151C46.6543 62.5068 46.3229 62.4026 45.9327 62.4026C45.535 62.4026 45.1998 62.5106 44.927 62.7265C44.6543 62.9424 44.4479 63.2416 44.3077 63.6242C44.1676 64.0068 44.0975 64.45 44.0975 64.9537C44.0975 65.4613 44.1676 65.9102 44.3077 66.3003C44.4517 66.6867 44.6581 66.9897 44.927 67.2094C45.1998 67.4253 45.535 67.5333 45.9327 67.5333ZM69.6009 69.4878C68.7979 69.4878 68.1047 69.3439 67.5214 69.056C66.9381 68.7681 66.4892 68.378 66.1748 67.8856C65.8642 67.3894 65.7089 66.8363 65.7089 66.2265C65.7089 65.7719 65.7998 65.3685 65.9816 65.0162C66.1634 64.664 66.4172 64.3401 66.743 64.0447C67.0565 63.7567 67.419 63.4705 67.8307 63.1861L67.7714 63.1128C67.4722 62.7341 67.2222 62.3325 67.0214 61.9083C66.8206 61.4803 66.7203 61.0162 66.7203 60.5162C66.7203 59.9519 66.8509 59.4443 67.1123 58.9935C67.3775 58.5428 67.7487 58.1867 68.2259 57.9253C68.7032 57.6602 69.26 57.5276 69.8964 57.5276C70.5176 57.5276 71.0536 57.6545 71.5044 57.9083C71.9589 58.1583 72.3074 58.4916 72.5498 58.9083C72.796 59.3212 72.9191 59.7757 72.9191 60.2719C72.9191 60.8212 72.7828 61.3193 72.51 61.7662C72.2411 62.2094 71.8623 62.6072 71.3737 62.9594L70.6917 63.4505L72.6095 65.6507C72.683 65.5154 72.7503 65.374 72.8112 65.2265C73.0081 64.7492 73.1066 64.2208 73.1066 63.6412H75.1123C75.1123 64.3534 75.0347 64.9954 74.8794 65.5674C74.7241 66.1356 74.5081 66.6318 74.2316 67.056C74.1742 67.1433 74.1151 67.2274 74.0542 67.3082L75.8055 69.3174H73.2828L72.5796 68.5343C72.159 68.8647 71.6908 69.1048 71.1748 69.2549C70.6445 69.4102 70.1199 69.4878 69.6009 69.4878ZM68.9987 64.6697L69.0657 64.6214L71.2735 67.0799C71.1624 67.1487 71.0481 67.2108 70.9305 67.2662C70.5328 67.4519 70.1294 67.5447 69.7203 67.5447C69.3831 67.5447 69.0896 67.4822 68.8396 67.3572C68.5896 67.2284 68.3964 67.0541 68.26 66.8344C68.1237 66.6147 68.0555 66.3666 68.0555 66.0901C68.0555 65.8666 68.1312 65.6337 68.2828 65.3912C68.4381 65.145 68.6767 64.9045 68.9987 64.6697ZM70.135 61.6697L69.5273 62.0692C69.3078 61.7966 69.1316 61.5384 68.9987 61.2947C68.8623 61.0447 68.7941 60.7984 68.7941 60.556C68.7941 60.3591 68.8396 60.181 68.9305 60.0219C69.0252 59.8591 69.1559 59.7284 69.3225 59.6299C69.4892 59.5276 69.6862 59.4765 69.9134 59.4765C70.2544 59.4727 70.5176 59.5693 70.7032 59.7662C70.8888 59.9632 70.9816 60.1772 70.9816 60.4083C70.9816 60.6507 70.9134 60.8761 70.7771 61.0844C70.6407 61.289 70.4267 61.4841 70.135 61.6697ZM90.7706 69.3174V57.681H98.4751V59.7094H93.2308V62.4822H97.9638V64.5106H93.2308V69.3174H90.7706ZM105.189 69.3174V60.5901H107.609V69.3174H105.189ZM106.404 59.4651C106.045 59.4651 105.736 59.3458 105.478 59.1072C105.224 58.8647 105.098 58.575 105.098 58.2378C105.098 57.9045 105.224 57.6185 105.478 57.3799C105.736 57.1375 106.045 57.0162 106.404 57.0162C106.764 57.0162 107.071 57.1375 107.325 57.3799C107.582 57.6185 107.711 57.9045 107.711 58.2378C107.711 58.575 107.582 58.8647 107.325 59.1072C107.071 59.3458 106.764 59.4651 106.404 59.4651ZM119.294 60.5901V62.4083H117.652V66.6356C117.652 66.859 117.686 67.0333 117.754 67.1583C117.822 67.2795 117.917 67.3647 118.038 67.414C118.163 67.4632 118.307 67.4878 118.47 67.4878C118.584 67.4878 118.697 67.4784 118.811 67.4594C118.925 67.4367 119.012 67.4197 119.072 67.4083L119.453 69.2094C119.332 69.2473 119.161 69.2909 118.942 69.3401C118.722 69.3931 118.455 69.4253 118.141 69.4367C117.557 69.4594 117.046 69.3818 116.606 69.2037C116.171 69.0257 115.832 68.7492 115.589 68.3742C115.347 67.9992 115.228 67.5257 115.231 66.9537V62.4083H114.038V60.5901H115.231V58.4992H117.652V60.5901H119.294ZM134.145 57.681H136.901L139.554 62.6924H139.668L142.322 57.681H145.077L140.833 65.2037V69.3174H138.39V65.2037L134.145 57.681ZM153.595 69.4878C152.712 69.4878 151.949 69.3003 151.305 68.9253C150.665 68.5465 150.17 68.02 149.822 67.3458C149.473 66.6678 149.299 65.8818 149.299 64.9878C149.299 64.0863 149.473 63.2984 149.822 62.6242C150.17 61.9462 150.665 61.4197 151.305 61.0447C151.949 60.6659 152.712 60.4765 153.595 60.4765C154.477 60.4765 155.239 60.6659 155.879 61.0447C156.523 61.4197 157.019 61.9462 157.367 62.6242C157.716 63.2984 157.89 64.0863 157.89 64.9878C157.89 65.8818 157.716 66.6678 157.367 67.3458C157.019 68.02 156.523 68.5465 155.879 68.9253C155.239 69.3003 154.477 69.4878 153.595 69.4878ZM153.606 67.6128C154.007 67.6128 154.343 67.4992 154.612 67.2719C154.881 67.0409 155.083 66.7265 155.22 66.3287C155.36 65.931 155.43 65.4784 155.43 64.9708C155.43 64.4632 155.36 64.0106 155.22 63.6128C155.083 63.2151 154.881 62.9007 154.612 62.6697C154.343 62.4386 154.007 62.3231 153.606 62.3231C153.201 62.3231 152.86 62.4386 152.583 62.6697C152.31 62.9007 152.104 63.2151 151.964 63.6128C151.828 64.0106 151.759 64.4632 151.759 64.9708C151.759 65.4784 151.828 65.931 151.964 66.3287C152.104 66.7265 152.31 67.0409 152.583 67.2719C152.86 67.4992 153.201 67.6128 153.606 67.6128ZM170.164 65.6015V60.5901H172.585V69.3174H170.261V67.7322H170.17C169.973 68.2435 169.646 68.6545 169.187 68.9651C168.733 69.2757 168.178 69.431 167.522 69.431C166.939 69.431 166.426 69.2984 165.983 69.0333C165.539 68.7681 165.193 68.3912 164.943 67.9026C164.697 67.414 164.572 66.8287 164.568 66.1469V60.5901H166.988V65.7151C166.992 66.2303 167.13 66.6375 167.403 66.9367C167.676 67.2359 168.041 67.3856 168.5 67.3856C168.791 67.3856 169.064 67.3193 169.318 67.1867C169.572 67.0503 169.776 66.8496 169.932 66.5844C170.091 66.3193 170.168 65.9916 170.164 65.6015ZM179.625 69.3174V60.5901H181.972V62.1128H182.063C182.222 61.5712 182.489 61.1621 182.864 60.8856C183.239 60.6053 183.67 60.4651 184.159 60.4651C184.28 60.4651 184.411 60.4727 184.551 60.4878C184.691 60.503 184.814 60.5238 184.92 60.5503V62.6981C184.807 62.664 184.65 62.6337 184.449 62.6072C184.248 62.5806 184.064 62.5674 183.898 62.5674C183.542 62.5674 183.223 62.645 182.943 62.8003C182.667 62.9519 182.447 63.164 182.284 63.4367C182.125 63.7094 182.045 64.0238 182.045 64.3799V69.3174H179.625ZM200.128 69.3174V57.681H204.719C205.598 57.681 206.348 57.8382 206.969 58.1526C207.594 58.4632 208.07 58.9045 208.396 59.4765C208.725 60.0447 208.89 60.7132 208.89 61.4822C208.89 62.2549 208.723 62.9197 208.39 63.4765C208.056 64.0295 207.574 64.4537 206.941 64.7492C206.931 64.7539 206.921 64.7587 206.911 64.7633C206.905 64.7658 206.9 64.7683 206.894 64.7707C206.875 64.7795 206.855 64.7882 206.836 64.7967L209.305 69.3174H206.589L204.385 65.1924H202.589V69.3174H200.128ZM204.259 63.2151H202.589V59.6924H204.248C204.721 59.6924 205.113 59.7625 205.424 59.9026C205.738 60.039 205.971 60.2397 206.123 60.5049C206.278 60.77 206.356 61.0958 206.356 61.4822C206.356 61.8647 206.278 62.1848 206.123 62.4424C205.971 62.7 205.74 62.8931 205.43 63.0219C205.119 63.1507 204.729 63.2151 204.259 63.2151ZM219.524 69.4878C218.626 69.4878 217.853 69.306 217.205 68.9424C216.562 68.575 216.065 68.056 215.717 67.3856C215.368 66.7113 215.194 65.914 215.194 64.9935C215.194 64.0958 215.368 63.3079 215.717 62.6299C216.065 61.9519 216.556 61.4234 217.188 61.0447C217.825 60.6659 218.571 60.4765 219.427 60.4765C220.003 60.4765 220.539 60.5693 221.035 60.7549C221.535 60.9367 221.971 61.2113 222.342 61.5787C222.717 61.9462 223.009 62.4083 223.217 62.9651C223.425 63.5181 223.529 64.1659 223.529 64.9083V65.5731H217.586V65.5787C217.586 66.0106 217.666 66.3837 217.825 66.6981C217.988 67.0125 218.217 67.2549 218.512 67.4253C218.808 67.5958 219.158 67.681 219.563 67.681C219.832 67.681 220.079 67.6431 220.302 67.5674C220.526 67.4916 220.717 67.378 220.876 67.2265C221.035 67.075 221.156 66.8894 221.24 66.6697L223.478 66.8174C223.365 67.3553 223.132 67.825 222.779 68.2265C222.431 68.6242 221.98 68.9348 221.427 69.1583C220.878 69.378 220.243 69.4878 219.524 69.4878ZM217.83 63.2151C217.684 63.4737 217.603 63.7597 217.588 64.0731H221.251C221.251 63.7246 221.175 63.4159 221.024 63.1469C220.872 62.878 220.662 62.6678 220.393 62.5162C220.128 62.3609 219.819 62.2833 219.467 62.2833C219.099 62.2833 218.774 62.3685 218.49 62.539C218.209 62.7056 217.99 62.931 217.83 63.2151ZM232.633 64.2719V69.3174H230.213V60.5901H232.52V62.1299H232.622C232.815 61.6223 233.139 61.2208 233.594 60.9253C234.048 60.6261 234.599 60.4765 235.247 60.4765C235.853 60.4765 236.381 60.6091 236.832 60.8742C237.283 61.1394 237.633 61.5181 237.883 62.0106C238.133 62.4992 238.258 63.0825 238.258 63.7606V69.3174H235.838V64.1924C235.842 63.6583 235.705 63.2416 235.429 62.9424C235.152 62.6394 234.772 62.4878 234.287 62.4878C233.961 62.4878 233.673 62.5579 233.423 62.6981C233.177 62.8382 232.984 63.0428 232.844 63.3117C232.707 63.5769 232.637 63.8969 232.633 64.2719ZM249.912 60.5901V62.4083H248.27V66.6356C248.27 66.859 248.304 67.0333 248.372 67.1583C248.44 67.2795 248.535 67.3647 248.656 67.414C248.781 67.4632 248.925 67.4878 249.088 67.4878C249.202 67.4878 249.315 67.4784 249.429 67.4594C249.543 67.4367 249.63 67.4197 249.69 67.4083L250.071 69.2094C249.95 69.2473 249.779 69.2909 249.56 69.3401C249.34 69.3931 249.073 69.4253 248.759 69.4367C248.175 69.4594 247.664 69.3818 247.225 69.2037C246.789 69.0257 246.45 68.7492 246.208 68.3742C245.965 67.9992 245.846 67.5257 245.85 66.9537V62.4083H244.656V60.5901H245.85V58.4992H248.27V60.5901H249.912ZM259.081 69.4822C258.525 69.4822 258.028 69.3856 257.593 69.1924C257.157 68.9954 256.812 68.7056 256.559 68.3231C256.309 67.9367 256.184 67.4556 256.184 66.8799C256.184 66.395 256.273 65.9878 256.451 65.6583C256.629 65.3287 256.871 65.0636 257.178 64.8628C257.485 64.6621 257.833 64.5106 258.223 64.4083C258.617 64.306 259.03 64.2341 259.462 64.1924C259.97 64.1394 260.379 64.0901 260.689 64.0447C261 63.9954 261.225 63.9234 261.365 63.8287C261.506 63.7341 261.576 63.5939 261.576 63.4083V63.3742C261.576 63.0144 261.462 62.7359 261.235 62.539C261.011 62.342 260.693 62.2435 260.28 62.2435C259.845 62.2435 259.498 62.3401 259.24 62.5333C258.983 62.7227 258.812 62.9613 258.729 63.2492L256.49 63.0674C256.604 62.5371 256.828 62.0787 257.161 61.6924C257.494 61.3022 257.924 61.003 258.451 60.7947C258.981 60.5825 259.595 60.4765 260.292 60.4765C260.776 60.4765 261.24 60.5333 261.684 60.6469C262.131 60.7606 262.526 60.9367 262.871 61.1753C263.22 61.414 263.494 61.7208 263.695 62.0958C263.896 62.467 263.996 62.9121 263.996 63.431V69.3174H261.701V68.1072H261.633C261.492 68.3799 261.305 68.6204 261.07 68.8287C260.835 69.0333 260.553 69.1943 260.223 69.3117C259.894 69.4253 259.513 69.4822 259.081 69.4822ZM259.775 67.8117C260.131 67.8117 260.445 67.7416 260.718 67.6015C260.99 67.4575 261.205 67.2644 261.36 67.0219C261.515 66.7795 261.593 66.5049 261.593 66.1981V65.2719C261.517 65.3212 261.413 65.3666 261.28 65.4083C261.151 65.4462 261.006 65.4822 260.843 65.5162C260.68 65.5465 260.517 65.575 260.354 65.6015C260.191 65.6242 260.044 65.645 259.911 65.664C259.627 65.7056 259.379 65.7719 259.167 65.8628C258.955 65.9537 258.79 66.0769 258.672 66.2322C258.555 66.3837 258.496 66.5731 258.496 66.8003C258.496 67.1299 258.615 67.3818 258.854 67.556C259.097 67.7265 259.403 67.8117 259.775 67.8117ZM273.398 57.681V69.3174H270.978V57.681H273.398ZM147.718 16.3954H161.459V18.1771C161.475 18.1931 161.49 18.2093 161.504 18.2258C162.33 19.2214 162.635 25.3825 162.109 29.0035L159.198 29.6162L159.364 29.0652L153.952 29.1992L148.54 29.3338L143.677 23.4833C141.002 20.2651 138.625 17.5611 138.394 17.4742C138.164 17.3872 136.634 18.0139 134.996 18.8663C133.062 19.8727 131.612 20.3117 130.865 20.1162C128.64 19.534 129.524 18.3705 135.032 14.6326C137.648 12.8572 138.894 12.9258 144.336 15.1457C145.72 15.7101 146.752 16.1079 147.718 16.3954ZM123.598 28.9244C124.357 28.7476 124.753 28.4307 125.319 27.8649C127.123 26.0614 128.583 26.2809 131.35 28.7715C132.671 29.961 134.592 31.6699 135.618 32.5678C137.242 33.9901 137.439 34.4035 137.14 35.7655C136.75 37.5398 137.538 37.8964 138.488 36.3759C138.816 35.8509 139.467 35.5214 139.935 35.6437C140.403 35.766 141.086 35.5051 141.452 35.0635C141.819 34.6215 142.523 34.2603 143.017 34.2603C143.511 34.2603 144.199 33.9175 144.547 33.4985C144.895 33.0794 145.363 32.8502 145.587 32.9884C146.274 33.4135 147.622 32.6604 147.622 31.8515C147.622 31.431 145.504 28.5203 142.916 25.383C140.328 22.2456 138.142 19.5841 138.058 19.468C137.974 19.3524 136.78 19.8701 135.404 20.6192C132.537 22.1796 130.46 22.3439 128.749 21.1456C127.776 20.4636 127.608 19.9929 127.836 18.5875L128.115 16.8648H122.488H116.86L117.331 16H114.405C114.064 16.8483 113.775 17.7126 113.542 18.588C112.671 21.8583 112.614 27.6996 113.445 28.53C113.524 28.6094 113.669 28.6818 113.877 28.7468V29.1863H123.598V28.9244ZM126.669 29.3737C125.346 30.7822 125.556 32.1585 127.159 32.578C127.72 32.7249 128.18 33.0482 128.18 33.2969C128.18 33.545 128.532 33.7486 128.963 33.7486C129.394 33.7486 129.88 34.095 130.042 34.5186C130.205 34.9418 131.149 35.6734 132.141 36.1441C133.856 36.9581 133.978 36.953 134.644 36.0438C135.594 34.7438 135.523 34.2117 134.354 33.9062C133.811 33.764 133.243 33.325 133.092 32.9305C132.94 32.5366 132.464 32.2137 132.033 32.2137C131.602 32.2137 131.249 31.9631 131.249 31.6561C131.249 31.0723 128.655 28.1207 128.143 28.1207C127.98 28.1207 127.316 28.6845 126.669 29.3737Z" fill="url(#paint0_linear_237_1415)"/>
<defs>
<linearGradient id="paint0_linear_237_1415" x1="156.263" y1="42.0357" x2="119.987" y2="7.86957" gradientUnits="userSpaceOnUse">
<stop stopColor="#127C8B"/>
<stop offset="1" stopColor="#386649"/>
</linearGradient>
</defs>
</svg>
