<svg width="51" height="51" viewBox="0 0 51 51" fill="none" xmlns="http://www.w3.org/2000/svg">
<path fillRule="evenodd" clipRule="evenodd" d="M7.37671 8.41557C1.74752 14.5004 -0.29821 22.6231 1.13847 30.1863H1.87732V30.1863H11.5983V29.9244C12.3573 29.7476 12.7533 29.4307 13.3191 28.8649C15.1226 27.0614 16.5833 27.2809 19.3497 29.7715C20.6712 30.9611 22.5919 32.6699 23.6182 33.5678C25.2421 34.9902 25.4386 35.4036 25.1398 36.7655C24.75 38.5399 25.5384 38.8965 26.488 37.3759C26.8159 36.851 27.4672 36.5215 27.9349 36.6438C28.403 36.766 29.086 36.5051 29.4524 36.0636C29.8192 35.6215 30.5232 35.2603 31.0169 35.2603C31.5106 35.2603 32.1993 34.9175 32.5472 34.4985C32.8951 34.0795 33.3628 33.8502 33.5868 33.9884C34.2745 34.4136 35.6216 33.6604 35.6216 32.8515C35.6216 32.431 33.504 29.5203 30.9161 26.383C28.3283 23.2457 26.1421 20.5842 26.0582 20.468C25.9743 20.3524 24.7796 20.8702 23.4039 21.6192C20.5372 23.1797 18.46 23.3439 16.7491 22.1457C15.7759 21.4637 15.6076 20.993 15.8358 19.5875L16.1152 17.8648H10.4877H5.13812C5.51525 16.839 5.97163 15.8348 6.50762 14.8615C8.50346 11.5465 13.0628 7.31969 16.3075 5.83435C21.7861 3.32633 29.0712 3.25675 34.6562 5.65937C35.9652 6.22237 36.956 6.79104 37.6004 7.33608L34.5547 10.6282L46.9605 13.4405L46.1396 10.793L46.1929 10.7653C46.1572 10.7161 46.1213 10.6669 46.0853 10.6178L43.1931 1.29062L40.0054 4.7363C29.8904 -2.20021 15.9527 -0.854694 7.37671 8.41557ZM49.6028 17.3611C52.4781 25.8104 50.7497 35.5279 44.2631 42.5396C40.3579 46.7608 35.3411 49.3389 30.0797 50.2401C28.7638 50.4826 27.4243 50.6092 26.0741 50.6092C25.8676 50.6092 25.6598 50.6062 25.4508 50.6C21.2567 50.5398 17.0672 49.4353 13.3048 47.2701C12.7139 46.9537 12.1414 46.6182 11.592 46.2647L8.44678 49.6646L5.5546 40.3375L5.52458 40.2965L5.5395 40.2888L4.67933 37.5148L17.0851 40.327L13.7603 43.921C22.5966 49.714 34.5795 48.4536 41.9932 40.4397C43.0075 39.3432 43.8892 38.1713 44.639 36.9436C45.4927 35.5251 46.1785 34.0037 46.6606 32.4018L47.364 30.0652L41.952 30.1992L36.5405 30.3338L31.6769 24.4833C29.0021 21.2651 26.6251 18.5612 26.3943 18.4742C26.1636 18.3872 24.6343 19.014 22.9956 19.8663C21.0621 20.8727 19.6122 21.3117 18.8652 21.1163C16.6396 20.534 17.5237 19.3706 23.0319 15.6326C25.6484 13.8572 26.8942 13.9258 32.3359 16.1458C33.7196 16.7102 34.7525 17.1079 35.7182 17.3955H49.459V17.4359L49.6028 17.3611ZM14.6693 30.3737C13.3457 31.7822 13.5565 33.1585 15.1589 33.5781C15.7202 33.7249 16.1796 34.0482 16.1796 34.2969C16.1796 34.545 16.5321 34.7487 16.9629 34.7487C17.3942 34.7487 17.8798 35.095 18.042 35.5187C18.2047 35.9418 19.1491 36.6734 20.1412 37.1441C21.8562 37.9581 21.9784 37.953 22.6436 37.0438C23.5942 35.7438 23.5226 35.2117 22.3545 34.9063C21.8111 34.764 21.2427 34.325 21.0918 33.9306C20.9404 33.5366 20.464 33.2138 20.0327 33.2138C19.6019 33.2138 19.2494 32.9631 19.2494 32.6561C19.2494 32.0723 16.6554 29.1207 16.1428 29.1207C15.9796 29.1207 15.3165 29.6845 14.6693 30.3737Z" fill="url(#paint0_linear_306_1300)"/>
<defs>
<linearGradient id="paint0_linear_306_1300" x1="44.2631" y1="42.5396" x2="7.37675" y2="8.41555" gradientUnits="userSpaceOnUse">
<stop stopColor="#127C8B"/>
<stop offset="1" stopColor="#386649"/>
</linearGradient>
</defs>
</svg>
