<svg width="51" height="25" viewBox="0 0 51 25" fill="none" xmlns="http://www.w3.org/2000/svg">
<path fillRule="evenodd" clipRule="evenodd" d="M49.5037 5.22576C50.33 6.22136 50.6347 12.3825 50.1085 16.0035L47.1982 16.6162L47.364 16.0652L41.952 16.1992L36.5405 16.3338L31.6769 10.4833C29.0021 7.26512 26.6251 4.56115 26.3943 4.47417C26.1636 4.38719 24.6343 5.01394 22.9956 5.86632C21.0621 6.8727 19.6122 7.31168 18.8652 7.11623C16.6396 6.534 17.5237 5.37055 23.0319 1.63257C25.6484 -0.14279 26.8942 -0.0742319 32.3359 2.14574C33.7196 2.71014 34.7525 3.10791 35.7182 3.39545H49.459V5.17714C49.4751 5.19309 49.49 5.20929 49.5037 5.22576ZM5.33052 2.99999H2.40508C2.06437 3.84834 1.77493 4.71264 1.54185 5.58799C0.671059 8.85834 0.614268 14.6996 1.44465 15.53C1.52408 15.6094 1.66949 15.6818 1.87732 15.7468V16.1863H11.5983V15.9244C12.3573 15.7476 12.7533 15.4307 13.3191 14.8649C15.1226 13.0614 16.5833 13.2809 19.3497 15.7715C20.6712 16.961 22.5919 18.6699 23.6182 19.5678C25.2421 20.9901 25.4386 21.4035 25.1398 22.7655C24.75 24.5398 25.5384 24.8964 26.488 23.3759C26.8159 22.8509 27.4672 22.5214 27.9349 22.6437C28.403 22.766 29.086 22.5051 29.4524 22.0635C29.8192 21.6215 30.5232 21.2603 31.0169 21.2603C31.5107 21.2603 32.1993 20.9175 32.5472 20.4985C32.8951 20.0794 33.3628 19.8502 33.5868 19.9884C34.2745 20.4135 35.6216 19.6604 35.6216 18.8515C35.6216 18.431 33.504 15.5203 30.9161 12.383C28.3283 9.24564 26.1421 6.58414 26.0582 6.468C25.9743 6.35237 24.7796 6.87014 23.4039 7.61917C20.5372 9.17964 18.46 9.34388 16.7491 8.14563C15.7759 7.46363 15.6076 6.99293 15.8358 5.58748L16.1152 3.86482H10.4877H4.85978L5.33052 2.99999ZM14.6693 16.3737C13.3457 17.7822 13.5565 19.1585 15.1589 19.578C15.7202 19.7249 16.1796 20.0482 16.1796 20.2969C16.1796 20.545 16.5321 20.7486 16.9629 20.7486C17.3942 20.7486 17.8798 21.095 18.042 21.5186C18.2047 21.9418 19.1491 22.6734 20.1412 23.1441C21.8562 23.9581 21.9784 23.953 22.6436 23.0438C23.5942 21.7438 23.5226 21.2117 22.3545 20.9062C21.8111 20.764 21.2427 20.325 21.0918 19.9305C20.9404 19.5366 20.464 19.2137 20.0327 19.2137C19.6019 19.2137 19.2494 18.9631 19.2494 18.6561C19.2494 18.0723 16.6554 15.1207 16.1428 15.1207C15.9796 15.1207 15.3165 15.6845 14.6693 16.3737Z" fill="url(#paint0_linear_237_1415)"/>
<defs>
<linearGradient id="paint0_linear_237_1415" x1="28.9058" y1="14.789" x2="18.9311" y2="9.90893" gradientUnits="userSpaceOnUse">
<stop stopColor="#127C8B"/>
<stop offset="1" stopColor="#386649"/>
</linearGradient>
</defs>
</svg>
